<svg width="102" height="72" viewBox="0 0 102 72" fill="none" xmlns="http://www.w3.org/2000/svg">
<path d="M0 0.0220062C12.2546 16.3716 24.0716 13.379 44.9045 13.379C46.502 13.379 47.4867 15.1614 46.6333 16.5257C32.5623 41.4352 28.7328 31.9511 49.5 53.0318V72L26.2162 48.5868C24.0716 46.4303 23.6996 43.0636 25.3408 40.489L32.8468 28.7164C33.6565 27.4401 32.7593 25.7677 31.2493 25.7677C10.5915 27.154 6.4118 17.2298 0 0V0.0220062Z" fill="#FF2600"/>
<path d="M102 0.0220062C89.7454 16.3716 77.9284 13.379 57.0955 13.379C55.498 13.379 54.5133 15.1614 55.3667 16.5257C69.4377 41.4352 73.2672 31.9511 52.5 53.0318V72L75.7838 48.5868C77.9284 46.4303 78.3004 43.0636 76.6592 40.489L69.1532 28.7164C68.3435 27.4401 69.2407 25.7677 70.7507 25.7677C91.4085 27.154 95.5882 17.2298 102 0V0.0220062Z" fill="#FF2600"/>
</svg>
