<svg width="20" height="20" viewBox="0 0 20 20" fill="none" xmlns="http://www.w3.org/2000/svg">
<rect width="20" height="20" rx="10" fill="#FF2600"/>
<path d="M2 4.50367C3.9223 7.22861 5.77594 6.72983 9.04384 6.72983C9.29443 6.72983 9.4489 7.0269 9.31502 7.25428C7.10782 11.4059 6.5071 9.82518 9.76471 13.3386V16.5L6.11234 12.5978C5.77594 12.2384 5.71758 11.6773 5.97503 11.2482L7.15244 9.28606C7.27945 9.07335 7.13871 8.79462 6.90186 8.79462C3.66141 9.02567 3.00577 7.37164 2 4.5V4.50367Z" fill="white"/>
<path d="M18.0001 4.50367C16.0778 7.22861 14.2241 6.72983 10.9562 6.72983C10.7056 6.72983 10.5512 7.0269 10.685 7.25428C12.8922 11.4059 13.493 9.82518 10.2354 13.3386V16.5L13.8877 12.5978C14.2241 12.2384 14.2825 11.6773 14.025 11.2482L12.8476 9.28606C12.7206 9.07335 12.8613 8.79462 13.0982 8.79462C16.3386 9.02567 16.9943 7.37164 18.0001 4.5V4.50367Z" fill="white"/>
</svg>
