<svg width="20" height="20" viewBox="0 0 20 20" fill="none" xmlns="http://www.w3.org/2000/svg">
<path fill-rule="evenodd" clip-rule="evenodd" d="M1.05703 18.9425C1.57773 19.4632 2.42195 19.4632 2.94265 18.9425L9.99984 11.8853L17.057 18.9425C17.5777 19.4632 18.4219 19.4632 18.9426 18.9425C19.4633 18.4218 19.4633 17.5776 18.9426 17.0569L11.8855 9.99967L18.9426 2.94248C19.4633 2.42178 19.4633 1.57756 18.9426 1.05687C18.4219 0.536165 17.5777 0.536165 17.057 1.05687L9.99984 8.11406L2.94265 1.05687C2.42195 0.536165 1.57773 0.536165 1.05703 1.05687C0.536329 1.57756 0.536329 2.42178 1.05703 2.94248L8.11422 9.99967L1.05703 17.0569C0.536329 17.5776 0.536329 18.4218 1.05703 18.9425Z" fill="white"/>
</svg>
