<svg width="24" height="24" viewBox="0 0 24 24" fill="none" xmlns="http://www.w3.org/2000/svg">
<path d="M15.6823 13.9782L20.2383 19.2936C20.4644 19.5571 20.6101 19.88 20.6582 20.2239C20.7063 20.5678 20.6548 20.9182 20.5097 21.2337C20.3646 21.5492 20.132 21.8164 19.8396 22.0036C19.5472 22.1909 19.2072 22.2903 18.86 22.2902H4.97141C4.62423 22.2902 4.28432 22.1907 3.99199 22.0034C3.69967 21.8161 3.46721 21.5489 3.32218 21.2334C3.17715 20.918 3.12565 20.5676 3.17377 20.2237C3.2219 19.8799 3.36764 19.5571 3.5937 19.2936L8.15027 13.9782C8.68741 14.3039 9.26913 14.5627 9.8857 14.7422L4.97141 20.4753H18.86L13.9457 14.7422C14.5554 14.5649 15.1391 14.3081 15.6817 13.9782H15.6823ZM11.9154 1.71875C15.2571 1.71875 17.9657 4.42732 17.9657 7.76904C17.9657 11.1108 15.2571 13.8193 11.9154 13.8193C8.5737 13.8193 5.86513 11.1108 5.86513 7.76904C5.86513 4.42789 8.5737 1.71875 11.916 1.71875H11.9154ZM11.9154 3.53361C11.3592 3.53361 10.8085 3.64316 10.2946 3.85601C9.78072 4.06886 9.31381 4.38084 8.92051 4.77414C8.52722 5.16743 8.21524 5.63434 8.00239 6.14821C7.78954 6.66207 7.67998 7.21283 7.67998 7.76904C7.67998 8.32524 7.78954 8.876 8.00239 9.38986C8.21524 9.90373 8.52722 10.3706 8.92051 10.7639C9.31381 11.1572 9.78072 11.4692 10.2946 11.6821C10.8085 11.8949 11.3592 12.0045 11.9154 12.0045C13.0387 12.0045 14.116 11.5582 14.9103 10.7639C15.7046 9.96964 16.1508 8.89234 16.1508 7.76904C16.1508 6.64573 15.7046 5.56843 14.9103 4.77414C14.116 3.97984 13.0387 3.53361 11.9154 3.53361Z" fill="#1F1F1F"/>
</svg>
