<svg width="25" height="26" viewBox="0 0 25 26" fill="none" xmlns="http://www.w3.org/2000/svg">
<path d="M18.9359 14.7705C18.9334 14.7731 18.9308 14.7756 18.9282 14.7782L10.9735 22.7433C10.9103 22.8062 10.8405 22.862 10.7653 22.9099L10.5362 23.0348L10.3801 23.0869H10.2655C10.09 23.1191 9.91006 23.1191 9.73451 23.0869H9.6304H9.50546L9.32844 22.9932C9.2298 22.9396 9.13873 22.8731 9.05771 22.7954L1.07181 14.7782C0.53704 14.2477 0.533575 13.384 1.06409 12.8493C1.06663 12.8467 1.06922 12.8441 1.07181 12.8416C1.61087 12.3272 2.45892 12.3272 2.99803 12.8416L7.75626 17.5894C7.96153 17.7907 8.29117 17.7874 8.49244 17.5821C8.5861 17.4866 8.6394 17.3587 8.64125 17.225V1.72163C8.6412 0.968311 9.25182 0.357605 10.0051 0.357555C10.7585 0.357508 11.3691 0.968117 11.3692 1.72144V1.72163V17.225C11.3733 17.5124 11.6096 17.7423 11.897 17.7382C12.0308 17.7363 12.1587 17.6831 12.2542 17.5894L16.9916 12.8416C17.5321 12.3206 18.3878 12.3206 18.9283 12.8416C19.463 13.3721 19.4665 14.2357 18.9359 14.7705Z" fill="#160647"/>
</svg>
