<svg width="25" height="24" viewBox="0 0 25 24" fill="none" xmlns="http://www.w3.org/2000/svg">
<path fill-rule="evenodd" clip-rule="evenodd" d="M17.2018 2.90722C17.7831 2.32633 18.5713 2 19.3932 2C20.2154 2 21.0039 2.32662 21.5853 2.908C22.1667 3.48938 22.4933 4.27791 22.4933 5.10011C22.4933 5.92207 22.1668 6.71039 21.5858 7.29172C21.5856 7.29189 21.5859 7.29156 21.5858 7.29172L20.3216 8.5604C20.2865 8.61212 20.2461 8.66128 20.2003 8.70711C20.1553 8.75205 20.1072 8.79183 20.0565 8.82643L13.2015 15.7059C13.0139 15.8943 12.759 16.0001 12.4932 16.0001H9.49317C8.94088 16.0001 8.49317 15.5524 8.49317 15.0001V12.0001C8.49317 11.7343 8.59901 11.4794 8.78732 11.2917L15.6663 4.4373C15.701 4.38642 15.7409 4.33804 15.7861 4.29289C15.8321 4.24687 15.8815 4.20627 15.9334 4.1711L17.2011 2.908C17.2013 2.90774 17.2016 2.90748 17.2018 2.90722ZM16.5045 6.42551L10.4932 12.4154V14.0001H12.0779L18.0678 7.98881L16.5045 6.42551ZM19.4795 6.57208L17.9212 5.01382L18.6153 4.32221C18.8216 4.1159 19.1014 4 19.3932 4C19.6849 4 19.9648 4.1159 20.1711 4.32221C20.3774 4.52852 20.4933 4.80834 20.4933 5.10011C20.4933 5.39187 20.3774 5.67169 20.1711 5.878L19.4795 6.57208ZM10.4826 6.92508C10.5627 7.47153 10.1846 7.97943 9.63816 8.0595C8.13899 8.27918 6.77837 9.05775 5.82938 10.2389C4.8804 11.4201 4.41327 12.9165 4.52177 14.4278C4.63026 15.9391 5.30634 17.3535 6.41431 18.387C7.52205 19.4203 8.97954 19.9965 10.4944 20.0001C11.9367 19.9996 13.3306 19.4798 14.421 18.5357C15.5117 17.5914 16.2258 16.2857 16.4325 14.8578C16.5116 14.3112 17.0188 13.9323 17.5654 14.0114C18.112 14.0905 18.491 14.5977 18.4119 15.1443C18.1363 17.048 17.1843 18.7887 15.7301 20.0477C14.2759 21.3068 12.4168 21.9999 10.4933 22.0001L10.491 22.0001C8.47093 21.9957 6.52726 21.2274 5.05008 19.8495C3.57291 18.4716 2.67155 16.586 2.5269 14.5711C2.38226 12.5562 3.00503 10.5611 4.27024 8.98631C5.53545 7.41152 7.34946 6.37351 9.3482 6.08063C9.89465 6.00056 10.4025 6.37863 10.4826 6.92508Z" fill="white"/>
</svg>
