<svg width="24" height="24" viewBox="0 0 24 24" fill="none" xmlns="http://www.w3.org/2000/svg">
<rect width="24" height="24" rx="12" fill="white"/>
<path d="M20.7511 12.1941C20.7511 11.4747 20.6915 10.9497 20.5626 10.4053H12.1797V13.6525H17.1003C17.0011 14.4594 16.4654 15.6747 15.2749 16.4913L15.2582 16.6L17.9087 18.6123L18.0924 18.6303C19.7788 17.1039 20.7511 14.858 20.7511 12.1941Z" fill="#4285F4"/>
<path d="M12.1788 20.75C14.5895 20.75 16.6133 19.9722 18.0915 18.6305L15.274 16.4916C14.5201 17.0068 13.5081 17.3666 12.1788 17.3666C9.81773 17.3666 7.81379 15.8402 7.09944 13.7305L6.99473 13.7392L4.23868 15.8295L4.20264 15.9277C5.67087 18.786 8.68674 20.75 12.1788 20.75Z" fill="#34A853"/>
<path d="M7.10014 13.7302C6.91165 13.1858 6.80257 12.6024 6.80257 11.9997C6.80257 11.3969 6.91165 10.8135 7.09022 10.2691L7.08523 10.1532L4.29464 8.0293L4.20333 8.07186C3.5982 9.25798 3.25098 10.59 3.25098 11.9997C3.25098 13.4094 3.5982 14.7413 4.20333 15.9274L7.10014 13.7302Z" fill="#FBBC05"/>
<path d="M12.1789 6.63331C13.8554 6.63331 14.9864 7.34303 15.6312 7.93613L18.1511 5.525C16.6035 4.11528 14.5895 3.25 12.1789 3.25C8.68676 3.25 5.67088 5.21387 4.20264 8.07218L7.08953 10.2694C7.81381 8.15972 9.81776 6.63331 12.1789 6.63331Z" fill="#EB4335"/>
</svg>
