<svg width="15" height="15" viewBox="0 0 15 15" fill="none" xmlns="http://www.w3.org/2000/svg">
<path d="M7.59863 3.40625C9.56738 3.40625 11.1924 5.03125 11.1924 7C11.1924 9 9.56738 10.5938 7.59863 10.5938C5.59863 10.5938 4.00488 9 4.00488 7C4.00488 5.03125 5.59863 3.40625 7.59863 3.40625ZM7.59863 9.34375C8.87988 9.34375 9.91113 8.3125 9.91113 7C9.91113 5.71875 8.87988 4.6875 7.59863 4.6875C6.28613 4.6875 5.25488 5.71875 5.25488 7C5.25488 8.3125 6.31738 9.34375 7.59863 9.34375ZM12.1611 3.28125C12.1611 3.75 11.7861 4.125 11.3174 4.125C10.8486 4.125 10.4736 3.75 10.4736 3.28125C10.4736 2.8125 10.8486 2.4375 11.3174 2.4375C11.7861 2.4375 12.1611 2.8125 12.1611 3.28125ZM14.5361 4.125C14.5986 5.28125 14.5986 8.75 14.5361 9.90625C14.4736 11.0312 14.2236 12 13.4111 12.8438C12.5986 13.6562 11.5986 13.9062 10.4736 13.9688C9.31738 14.0312 5.84863 14.0312 4.69238 13.9688C3.56738 13.9062 2.59863 13.6562 1.75488 12.8438C0.942383 12 0.692383 11.0312 0.629883 9.90625C0.567383 8.75 0.567383 5.28125 0.629883 4.125C0.692383 3 0.942383 2 1.75488 1.1875C2.59863 0.375 3.56738 0.125 4.69238 0.0625C5.84863 0 9.31738 0 10.4736 0.0625C11.5986 0.125 12.5986 0.375 13.4111 1.1875C14.2236 2 14.4736 3 14.5361 4.125ZM13.0361 11.125C13.4111 10.2188 13.3174 8.03125 13.3174 7C13.3174 6 13.4111 3.8125 13.0361 2.875C12.7861 2.28125 12.3174 1.78125 11.7236 1.5625C10.7861 1.1875 8.59863 1.28125 7.59863 1.28125C6.56738 1.28125 4.37988 1.1875 3.47363 1.5625C2.84863 1.8125 2.37988 2.28125 2.12988 2.875C1.75488 3.8125 1.84863 6 1.84863 7C1.84863 8.03125 1.75488 10.2188 2.12988 11.125C2.37988 11.75 2.84863 12.2188 3.47363 12.4688C4.37988 12.8438 6.56738 12.75 7.59863 12.75C8.59863 12.75 10.7861 12.8438 11.7236 12.4688C12.3174 12.2188 12.8174 11.75 13.0361 11.125Z" fill="white"/>
</svg>
