<svg xmlns="http://www.w3.org/2000/svg" version="1.1" xmlns:xlink="http://www.w3.org/1999/xlink" width="512" height="512" x="0" y="0" viewBox="0 0 24 24" style="enable-background:new 0 0 512 512" xml:space="preserve" class=""><g><path d="M18 14c-.053 0-.1.014-.155.016l-3.028-5.178a4 4 0 1 0-5.632 0l-3.019 5.179C6.109 14.014 6.057 14 6 14a4 4 0 1 0 3.859 5h4.282A3.994 3.994 0 1 0 18 14zm-3.859 3H9.859a3.994 3.994 0 0 0-1.731-2.376l2.793-4.79a3.589 3.589 0 0 0 2.161 0l2.8 4.786A3.989 3.989 0 0 0 14.141 17z" fill="#ffffff" opacity="1" data-original="#000000"></path></g></svg>