<svg id="Capa_1" enable-background="new 0 0 512 512" viewBox="0 0 512 512" xmlns="http://www.w3.org/2000/svg"><g><g><g><g><path d="m493.33 187.274-6.707-102.826c-3.098-47.503-42.531-84.448-90.135-84.448-47.604 0-87.037 36.945-90.135 84.448l-6.707 102.826c-.626 9.602 6.993 17.734 16.615 17.734h160.453c9.623 0 17.242-8.132 16.616-17.734z" fill="#7a6d79"/><path d="m493.33 187.274-6.707-102.826c-3.098-47.503-42.531-84.448-90.135-84.448-5.474 0-10.833.51-16.049 1.447 40.137 7.211 71.344 40.96 74.086 83l6.707 102.826c.626 9.602-6.993 17.734-16.615 17.734h32.098c9.622.001 17.241-8.131 16.615-17.733z" fill="#685e68"/><path d="m470.379 246.306h-147.782c-25.924 23.857-41.621 57.934-41.621 94.82 0 7.782 6.308 14.09 14.09 14.09h202.844c7.782 0 14.09-6.308 14.09-14.09 0-36.886-15.697-70.963-41.621-94.82z" fill="#fd8087"/><path d="m470.379 246.306h-27.057c25.924 23.857 41.621 57.934 41.621 94.82 0 7.782-6.308 14.091-14.09 14.091h27.057c7.782 0 14.09-6.309 14.09-14.091 0-36.886-15.697-70.963-41.621-94.82z" fill="#fe646f"/><path d="m441.541 226.277-.007.009h-45.046v37.624l17.491 17.491c7.022 7.022 18.019 8.092 26.288 2.593 13.516-8.988 24.171-22.067 30.112-37.688-8.563-7.88-18.241-14.646-28.838-20.029z" fill="#eaf6ff"/><path d="m351.442 226.286-.004-.011c-10.599 5.383-20.278 12.15-28.842 20.031 5.94 15.621 16.596 28.701 30.112 37.688 8.27 5.499 19.266 4.429 26.288-2.593l17.491-17.491v-37.624z" fill="#eaf6ff"/><path d="m421.463 218.124v-28.431h-49.951v28.431c-6.997 2.178-13.696 4.925-20.07 8.162 3.862 21.365 22.584 37.627 45.046 37.627 22.461 0 41.183-16.261 45.046-37.627-6.375-3.236-13.074-5.984-20.071-8.162z" fill="#f6a96c"/><path d="m382.959 203.44 10.681-.955 21.629-8.621 20.272-40.564 3.566-32.829-10.36-18.879c-5.11-1.67-9.951-4.16-14.318-7.412l-15.456-11.508c-1.475-1.099-3.496-1.099-4.972 0l-15.456 11.508c-8.621 6.419-19.083 9.886-29.831 9.886h-5.363c-3.414 0-6.181 2.768-6.181 6.181v35.445c.001 28.103 19.551 51.624 45.789 57.748z" fill="#fed2a4"/><path d="m444.261 104.065c-5.303 0-10.536-.848-15.513-2.474v44.1c0 28.103-19.551 51.625-45.789 57.749 4.347 1.014 8.872 1.568 13.528 1.568 32.76 0 59.317-26.557 59.317-59.317v-35.445c0-3.414-2.767-6.181-6.181-6.181z" fill="#ffbd86"/></g><g><g><path d="m448.681 339.993-5.426-7.313c-12.655-10.61-28.961-17.008-46.768-17.008-40.231 0-72.845 32.614-72.845 72.845 0 40.232 32.614 72.846 72.845 72.846s72.845-32.614 72.845-72.846c0-12.024-2.931-23.356-8.09-33.352z" fill="#00f2a6"/><path d="m443.255 332.68c5.16 9.996 8.092 21.33 8.092 33.355 0 40.232-32.614 72.846-72.846 72.846-17.806 0-34.113-6.397-46.767-17.008 12.103 23.448 36.547 39.491 64.754 39.491 40.232 0 72.846-32.614 72.846-72.846-.001-22.426-10.141-42.476-26.079-55.838z" fill="#0ed290"/></g><g><g><path d="m386.417 421.513c-4.261 0-8.522-1.626-11.773-4.877l-15.15-15.15c-6.503-6.502-6.503-17.045 0-23.547 6.502-6.503 17.045-6.503 23.547 0l3.377 3.376 17.987-17.986c6.502-6.503 17.045-6.503 23.547 0 6.503 6.502 6.503 17.045 0 23.547l-29.76 29.76c-3.253 3.252-7.514 4.877-11.775 4.877z" fill="#eaf6ff"/></g></g></g></g><g><path d="m171.912 389.591h-112.799c-36.189 23.29-59.113 63.748-59.113 108.319 0 7.781 6.308 14.09 14.09 14.09h81.771l19.651-13.676 19.651 13.676h81.771c7.782 0 14.09-6.309 14.09-14.09 0-44.571-22.924-85.029-59.112-108.319z" fill="#eaf6ff"/><path d="m135.163 512-10.406-68.546-9.245-5.384-9.245 5.384-10.406 68.546z" fill="#fd8087"/><path d="m124.757 443.454 10.406-23.92v-14.876l-19.651-4.778-14.651 7.594-5 12.06 10.406 23.92z" fill="#fe646f"/><path d="m171.912 389.591h-24.976c36.188 23.29 59.113 63.749 59.113 108.319 0 7.782-6.308 14.09-14.09 14.09h24.976c7.782 0 14.09-6.309 14.09-14.09-.001-44.571-22.925-85.029-59.113-108.319z" fill="#d8ecfe"/><path d="m140.488 374.907h-24.976v24.976l19.651 19.651c4.483 4.483 11.63 4.914 16.59.965 9.728-7.746 16.933-18.53 20.158-30.908-9.603-6.181-20.129-11.168-31.423-14.684z" fill="#b3dafe"/><path d="m90.536 374.907h24.976v24.976l-19.651 19.651c-4.483 4.483-11.63 4.914-16.59.965-9.728-7.746-16.933-18.53-20.158-30.908 9.603-6.181 20.13-11.168 31.423-14.684z" fill="#b3dafe"/><path d="m115.512 399.883c-13.794 0-24.976-11.182-24.976-24.976v-28.43h49.951v28.43c.001 13.794-11.181 24.976-24.975 24.976z" fill="#f6a96c"/><path d="m56.195 229.629v31.219l-12.397 19.361 12.397 22.265c0 28.104 19.551 51.625 45.789 57.749h14.832l19.334-6.809 4.325 2.868c20.284-9.426 34.354-29.969 34.354-53.809v-72.845h-118.634z" fill="#fed2a4"/><path d="m147.772 229.629v72.846c0 28.103-19.551 51.625-45.789 57.749 4.347 1.015 8.872 1.568 13.528 1.568 32.76 0 59.317-26.557 59.317-59.317l11.438-20.813-11.438-20.813v-31.22z" fill="#ffbd86"/><path d="m38.17 221.44v49.815l17.848-10.406h36.043c15.352 0 30.423-4.121 43.64-11.932l9.88-5.839c2.201-1.301 4.972-1.128 6.995.435l15.304 11.827 9.566.749-2.439 4.76 17.848 10.406v-59.696c0-23.423-16.209-43.729-39.049-48.92l-4.58-1.041c-9.447-9.73-22.431-15.221-35.993-15.221-41.457 0-75.063 33.606-75.063 75.063z" fill="#7a6d79"/><path d="m153.805 162.638-1.944-.442c9.942 9.249 16.018 22.406 16.018 36.738v56.405l7.127 5.508 17.848 10.406v-59.696c.001-23.422-16.208-43.728-39.049-48.919z" fill="#685e68"/><g fill="#f6a96c"><path d="m185.236 302.474h-10.407v-41.626h10.407c11.495 0 20.813 9.318 20.813 20.813 0 11.495-9.319 20.813-20.813 20.813z"/><path d="m45.789 302.474h10.407v-41.626h-10.407c-11.495 0-20.813 9.318-20.813 20.813 0 11.495 9.318 20.813 20.813 20.813z"/></g></g><path d="m274.097 37.587-52.1-35.819c-6.604-4.54-15.591.188-15.591 8.201v19.168h-57.593c-27.587 0-49.951 22.364-49.951 49.951v23.58c0 5.747 4.659 10.407 10.407 10.407h12.488c5.747 0 10.407-4.659 10.407-10.407v-23.58c0-9.196 7.455-16.65 16.65-16.65h57.593v19.169c0 8.013 8.987 12.741 15.591 8.201l52.1-35.819c5.751-3.954 5.751-12.447-.001-16.402z" fill="#00f2a6"/></g></g><g/><g/><g/><g/><g/><g/><g/><g/><g/><g/><g/><g/><g/><g/><g/></svg>