<svg width="21" height="21" viewBox="0 0 21 21" fill="none" xmlns="http://www.w3.org/2000/svg">
<path fill-rule="evenodd" clip-rule="evenodd" d="M20.2071 0.29292C20.4813 0.567077 20.5722 0.975 20.4406 1.33967L13.9406 19.3397C13.9312 19.3657 13.9207 19.3914 13.9092 19.4166C13.7855 19.6864 13.587 19.9151 13.3372 20.0754C13.0874 20.2357 12.7969 20.3209 12.5001 20.3209C12.2033 20.3209 11.9127 20.2357 11.6629 20.0754C11.4191 19.9189 11.2242 19.6974 11.1 19.4359L7.75465 12.7454L1.0642 9.40013C0.802764 9.27596 0.581179 9.08099 0.424711 8.83717C0.264412 8.58739 0.179199 8.29683 0.179199 8.00003C0.179199 7.70323 0.264412 7.41267 0.424711 7.16288C0.58501 6.9131 0.813655 6.71458 1.08347 6.59094C1.10868 6.57939 1.13435 6.56889 1.16042 6.55947L19.1604 0.0594748C19.525 -0.0722116 19.9329 0.0187631 20.2071 0.29292ZM9.71676 12.1975L12.4322 17.6283L17.0365 4.8777L9.71676 12.1975ZM15.6223 3.46352L2.87182 8.06787L8.30255 10.7833L15.6223 3.46352Z" fill="#141517"/>
</svg>
