<svg width="33" height="33" viewBox="0 0 33 33" fill="none" xmlns="http://www.w3.org/2000/svg">
<path d="M16.1953 0.833984C24.9695 0.833984 32.1953 8.05979 32.1953 16.834C32.1953 25.6727 24.9695 32.834 16.1953 32.834C7.3566 32.834 0.195312 25.6727 0.195312 16.834C0.195312 8.05979 7.3566 0.833984 16.1953 0.833984ZM23.5501 11.7372C23.6147 11.5437 23.6147 11.3501 23.5501 11.092C23.5501 10.963 23.4211 10.7695 23.3566 10.705C23.1631 10.5114 22.8405 10.5114 22.7114 10.5114C22.1308 10.5114 21.1631 10.834 16.7114 12.705C15.1631 13.3501 12.0663 14.6404 7.42112 16.705C6.64693 17.0275 6.25983 17.2856 6.19531 17.6082C6.1308 18.1243 6.96951 18.3179 7.93725 18.6404C8.77596 18.8985 9.87273 19.2211 10.4534 19.2211C10.9695 19.2211 11.5502 19.0275 12.1953 18.5759C16.5179 15.6082 18.776 14.1243 18.905 14.1243C19.034 14.1243 19.1631 14.0598 19.2276 14.1243C19.3566 14.2533 19.3566 14.3824 19.2921 14.4469C19.2276 14.7695 15.1631 18.5114 14.905 18.7695C14.0018 19.6727 12.9695 20.2533 14.5824 21.2856C15.9372 22.1888 16.7114 22.7695 18.1308 23.6727C19.034 24.2533 19.7437 24.963 20.6469 24.8985C21.0985 24.834 21.5502 24.4469 21.7437 23.2211C22.3243 20.4469 23.3566 14.2533 23.5501 11.7372Z" fill="white"/>
</svg>
