<svg id="Capa_1" enable-background="new 0 0 512 512" height="512" viewBox="0 0 512 512" width="512" xmlns="http://www.w3.org/2000/svg"><g><g><path d="m265.179 362.81c0-52.83 42.98-95.81 95.811-95.81.397 0 .793.007 1.189.014l1.335.022v-41.156l-44.655-44.655c-9.818-9.818-15.226-22.872-15.226-36.757s5.407-26.939 15.226-36.757c1.684-1.683 3.922-2.61 6.303-2.61s4.619.927 6.303 2.61l53.248 53.248v-118.459c0-19.33-15.67-35-35-35h-208.716c-19.33 0-35 15.67-35 35v85.625h4.599c13.233 0 24 10.767 24 24v12.896c0 13.233-10.767 24-24 24v2c13.233 0 24 10.767 24 24v12.896c0 13.233-10.767 24-24 24v2c13.233 0 24 10.767 24 24v12.896c0 13.233-10.767 24-24 24v2c13.233 0 24 10.767 24 24v12.896c0 13.233-10.767 24-24 24h-4.599v67.362h205.925c-27.974-16.749-46.743-47.352-46.743-82.261z" fill="#f2fbff"/><g><g><path d="m342.715 42.5v75.048l41.997 41.997v-117.045c0-19.33-15.67-35-35-35h-41.997c19.33 0 35 15.67 35 35z" fill="#dff6fd"/></g><g><path d="m362.513 267.019v-40.725l-19.799-19.799v62.26c5.918-1.148 12.026-1.756 18.275-1.756.599 0 1.194.017 1.791.028-.089 0-.177-.006-.267-.008z" fill="#dff6fd"/></g></g><path d="m360.989 458.62c-18.604 0-35.984-5.336-50.698-14.549h-204.294v25.429c0 19.33 15.67 35 35 35h208.715c19.33 0 35-15.67 35-35v-13.854c-7.589 1.94-15.537 2.974-23.723 2.974z" fill="#8379c1"/><path d="m360.989 458.62c-6.248 0-12.357-.608-18.275-1.756v12.636c0 19.33-15.67 35-35 35h41.997c19.33 0 35-15.67 35-35v-13.854c-7.588 1.94-15.536 2.974-23.722 2.974z" fill="#6e61b6"/><g fill="#54469c"><path d="m110.596 128.125c.983 0 1.949.066 2.901.182v-85.807c0-15.164 12.336-27.5 27.5-27.5h208.715c15.164 0 27.5 12.336 27.5 27.5v110.958l15 15v-125.958c0-23.435-19.065-42.5-42.5-42.5h-208.715c-23.435 0-42.5 19.065-42.5 42.5v85.625z"/><path d="m377.212 457.24v12.26c0 15.164-12.336 27.5-27.5 27.5h-208.715c-15.164 0-27.5-12.336-27.5-27.5v-91.973c-.952.115-1.919.182-2.901.182h-12.099v91.791c0 23.435 19.065 42.5 42.5 42.5h208.715c23.435 0 42.5-19.065 42.5-42.5v-16.108c-4.837 1.672-9.849 2.966-15 3.848z"/></g><path d="m135.595 165.021v-12.896c0-13.807-11.193-25-25-25h-31.394c-13.807 0-25 11.193-25 25v12.896c0 13.807 11.193 25 25 25-13.807 0-25 11.193-25 25v12.896c0 13.807 11.193 25 25 25-13.807 0-25 11.193-25 25v12.896c0 13.807 11.193 25 25 25-13.807 0-25 11.193-25 25v12.896c0 13.807 11.193 25 25 25h31.395c13.807 0 25-11.193 25-25v-12.896c0-13.807-11.193-25-25-25 13.807 0 25-11.193 25-25v-12.896c0-13.807-11.193-25-25-25 13.807 0 25-11.193 25-25v-12.896c0-13.807-11.193-25-25-25 13.806 0 24.999-11.193 24.999-25z" fill="#ffcebf"/><g><g><path d="m110.595 127.125h-31.2c13.807 0 25 11.193 25 25v12.896c0 13.807-11.193 25-25 25h31.201c13.807 0 25-11.193 25-25v-12.896c-.001-13.807-11.194-25-25.001-25z" fill="#ffb09e"/></g><g><path d="m110.595 190.021h-31.2c13.807 0 25 11.193 25 25v12.896c0 13.807-11.193 25-25 25h31.201c13.807 0 25-11.193 25-25v-12.896c-.001-13.807-11.194-25-25.001-25z" fill="#ffb09e"/></g><g><path d="m110.595 252.917h-31.2c13.807 0 25 11.193 25 25v12.896c0 13.807-11.193 25-25 25h31.201c13.807 0 25-11.193 25-25v-12.896c-.001-13.807-11.194-25-25.001-25z" fill="#ffb09e"/></g><g><path d="m110.595 315.813h-31.2c13.807 0 25 11.193 25 25v12.896c0 13.807-11.193 25-25 25h31.201c13.807 0 25-11.193 25-25v-12.896c-.001-13.807-11.194-25-25.001-25z" fill="#ffb09e"/></g></g><g><path d="m307.017 53.53h-123.325c-4.143 0-7.5-3.358-7.5-7.5s3.357-7.5 7.5-7.5h123.324c4.143 0 7.5 3.358 7.5 7.5s-3.357 7.5-7.499 7.5z" fill="#8379c1"/></g><path d="m303.633 144.468c0-13.751 5.31-26.682 14.95-36.468h-148.411c-2.761 0-5 2.239-5 5v39.33c0 2.761 2.239 5 5 5h135.059c-1.052-4.154-1.598-8.466-1.598-12.862z" fill="#a2e62e"/><path d="m279 157.33h26.231c-1.053-4.154-1.598-8.466-1.598-12.862 0-13.751 5.31-26.682 14.95-36.468h-39.583c2.761 0 5 2.239 5 5v39.33c0 2.761-2.239 5-5 5z" fill="#97d729"/><g><path d="m320.537 237.33h-150.365c-2.761 0-5-2.239-5-5v-39.33c0-2.761 2.239-5 5-5h150.365c2.761 0 5 2.239 5 5v39.33c0 2.761-2.239 5-5 5z" fill="#a2e62e"/></g><g><path d="m320.537 188h-41.537c2.761 0 5 2.239 5 5v39.33c0 2.761-2.239 5-5 5h41.537c2.761 0 5-2.239 5-5v-39.33c0-2.761-2.239-5-5-5z" fill="#97d729"/></g><g><path d="m362.513 226.294v40.725c36.56.574 68.214 21.721 83.861 52.355v-78.998c0-12.274-4.876-24.045-13.555-32.724l-100.648-100.649c-3.871-3.871-10.148-3.871-14.019 0-20.691 20.691-20.691 54.238 0 74.929z" fill="#ffcebf"/></g><g><path d="m415 250.668v33.05c13.208 9.048 24.047 21.311 31.374 35.656v-78.998c0-12.274-4.876-24.045-13.555-32.724l-100.648-100.649c-3.871-3.871-10.148-3.871-14.019 0-4.884 4.884-8.6 10.489-11.179 16.468l94.473 94.473c8.678 8.679 13.554 20.45 13.554 32.724z" fill="#ffb09e"/></g><g><g><circle cx="360.989" cy="362.81" fill="#0ed2b3" r="96.81"/></g><g><path d="m360.989 266c-7.177 0-14.168.788-20.9 2.269 43.42 9.556 75.911 48.251 75.911 94.541s-32.491 84.985-75.911 94.541c6.731 1.481 13.723 2.269 20.9 2.269 53.467 0 96.81-43.343 96.81-96.81s-43.343-96.81-96.81-96.81z" fill="#0ab69f"/></g><g><path d="m351.057 402.902c-1.919 0-3.839-.732-5.304-2.197l-37.328-37.328c-2.929-2.929-2.929-7.678 0-10.606 2.93-2.929 7.678-2.929 10.607 0l32.024 32.025 52.555-52.555c2.93-2.929 7.678-2.929 10.607 0s2.929 7.678 0 10.606l-57.858 57.858c-1.464 1.464-3.384 2.197-5.303 2.197z" fill="#fff"/></g></g><path d="m211.703 322.358h-26.938c-6.668 0-12.093-5.424-12.093-12.092v-5.715c0-6.667 5.425-12.092 12.093-12.092h26.938c6.667 0 12.092 5.424 12.092 12.092 0 4.142 3.357 7.5 7.5 7.5s7.5-3.358 7.5-7.5c0-14.938-12.153-27.092-27.092-27.092h-5.97v-10.459c0-4.142-3.357-7.5-7.5-7.5s-7.5 3.358-7.5 7.5v10.459h-5.969c-14.939 0-27.093 12.153-27.093 27.092v5.715c0 14.938 12.153 27.092 27.093 27.092h26.938c6.667 0 12.092 5.424 12.092 12.092v5.714c0 6.667-5.425 12.092-12.092 12.092h-26.938c-6.668 0-12.093-5.425-12.093-12.092 0-4.142-3.357-7.5-7.5-7.5s-7.5 3.358-7.5 7.5c0 14.939 12.153 27.092 27.093 27.092h5.969v10.459c0 4.142 3.357 7.5 7.5 7.5s7.5-3.358 7.5-7.5v-10.459h5.97c14.938 0 27.092-12.153 27.092-27.092v-5.714c0-14.939-12.153-27.092-27.092-27.092z" fill="#0ab69f"/></g></g></svg>