<svg width="48" height="41" viewBox="0 0 48 41" fill="none" xmlns="http://www.w3.org/2000/svg"><path d="M43.4883 19.3886C43.4883 19.438 43.4883 19.475 43.4883 19.5244C43.4635 19.6726 43.3765 19.7714 43.2646 19.8578C43.2398 19.8702 43.2273 19.8949 43.2025 19.9072C42.9539 20.1666 42.6929 20.4012 42.4319 20.6482C41.9347 21.1298 41.4376 21.5991 40.9404 22.0807C40.6421 22.3648 40.3314 22.6611 40.0331 22.9452C39.6976 23.2663 39.362 23.5874 39.014 23.9084C38.7157 24.1925 38.4298 24.4765 38.1315 24.7482C37.6219 25.2298 37.1248 25.7114 36.6152 26.1931C36.3169 26.4771 36.0311 26.7488 35.7328 27.0328C35.2232 27.5145 34.726 27.9961 34.2165 28.4777C33.9306 28.7494 33.6447 29.0211 33.3464 29.3051C32.9984 29.6386 32.638 29.972 32.29 30.3178C32.0041 30.5895 31.7307 30.8488 31.4448 31.1205C31.0844 31.4539 30.7364 31.7997 30.376 32.1331C30.0777 32.4295 29.767 32.7136 29.4562 32.9976C28.9715 33.4545 28.4868 33.9238 28.0021 34.3807C27.6913 34.6771 27.3806 34.9735 27.0699 35.2699C26.7468 35.5786 26.4112 35.8997 26.088 36.2084C25.7773 36.5048 25.4666 36.8012 25.1559 37.0976C24.8327 37.4063 24.4971 37.7151 24.174 38.0238C24.0497 38.1473 23.913 38.2708 23.7887 38.3943C23.6147 38.5672 23.4034 38.5672 23.2294 38.3943C22.9933 38.1596 22.7447 37.925 22.4961 37.6904C22.173 37.3693 21.8374 37.0605 21.5018 36.7395C21.1911 36.4431 20.8928 36.159 20.5821 35.8627C20.0849 35.3934 19.6002 34.9241 19.103 34.4548C18.7923 34.1584 18.494 33.8744 18.1833 33.578C17.8477 33.2569 17.5246 32.9482 17.189 32.6271C16.8783 32.3307 16.58 32.0467 16.2693 31.7503C15.7721 31.281 15.275 30.7994 14.7778 30.3301C14.4671 30.0337 14.1564 29.7374 13.8457 29.441C13.5225 29.1322 13.1994 28.8235 12.8638 28.5024C12.5531 28.206 12.2299 27.8973 11.9192 27.6009C11.5961 27.2922 11.2729 26.9834 10.9498 26.6747C10.639 26.3783 10.3159 26.0819 10.0052 25.7732C9.68202 25.4645 9.34644 25.1557 9.0233 24.8346C8.71258 24.5383 8.40186 24.2419 8.09114 23.9455C7.76799 23.6367 7.43241 23.3157 7.10926 23.0069C6.79854 22.7105 6.48782 22.4142 6.1771 22.1178C5.85395 21.809 5.5308 21.5003 5.19523 21.1792C4.88451 20.8828 4.57379 20.5864 4.26307 20.2901C4.06421 20.1048 3.87778 19.8949 3.66649 19.722C3.59191 19.6602 3.57948 19.5738 3.55463 19.4874C3.55463 19.438 3.55463 19.4009 3.55463 19.3515C3.57948 19.1292 3.69134 18.9316 3.79077 18.734C4.02692 18.2401 4.2755 17.7337 4.51164 17.2398C4.93422 16.3506 5.3568 15.4614 5.77938 14.5846C6.01553 14.103 6.23925 13.6214 6.47539 13.1398C6.83583 12.3864 7.19626 11.6331 7.5567 10.8798C7.78042 10.4105 8.00414 9.94127 8.24028 9.45964C8.60072 8.69398 8.97358 7.92831 9.33402 7.16265C9.55773 6.70572 9.76902 6.2488 9.99274 5.77952C10.2413 5.26084 10.5023 4.75452 10.726 4.23584C10.8503 3.96416 11.0119 3.85301 11.3226 3.85301C19.4635 3.86536 27.6043 3.86536 35.7452 3.85301C36.0932 3.85301 36.1678 3.89006 36.3045 4.22349C36.4536 4.54458 36.6028 4.86566 36.7644 5.18675C37.2242 6.13765 37.6841 7.1009 38.1315 8.05181C38.4298 8.66928 38.7281 9.2991 39.0264 9.91657C39.449 10.8057 39.884 11.6949 40.3066 12.584C40.5427 13.0657 40.7664 13.5473 41.0026 14.0289C41.363 14.7822 41.7235 15.5355 42.0839 16.2889C42.3076 16.7581 42.5313 17.2274 42.755 17.6967C42.9788 18.1536 43.19 18.6105 43.4138 19.0675C43.4511 19.2033 43.4511 19.3021 43.4883 19.3886Z" fill="#4FAC92"></path><path d="M23.5277 8.65693C26.6473 8.65693 29.7545 8.65693 32.8742 8.65693C33.0233 8.65693 33.0109 8.63223 33.0109 8.79277C33.0109 10.2377 33.0109 11.6702 33.0109 13.1151C33.0109 13.288 33.0357 13.2756 32.8617 13.2756C30.637 13.2756 28.4247 13.2756 26.1999 13.2756C26.0383 13.2756 26.0508 13.2633 26.0508 13.4238C26.0508 14.3377 26.0508 15.2639 26.0508 16.1777C26.0508 16.2765 26.0756 16.3012 26.175 16.3012C27.5174 16.363 28.8597 16.4741 30.1895 16.6717C31.3703 16.8446 32.5386 17.0545 33.682 17.4127C34.204 17.5732 34.726 17.7708 35.1983 18.0548C35.4096 18.1783 35.6085 18.3265 35.7576 18.5117C36.0186 18.8452 36.0186 19.191 35.7452 19.5121C35.5339 19.759 35.2605 19.9319 34.9746 20.0801C34.3159 20.4259 33.6075 20.6358 32.8866 20.8211C31.8923 21.0681 30.8856 21.241 29.8664 21.3768C28.6608 21.5374 27.4428 21.6361 26.2248 21.6979C26.0259 21.7102 26.0632 21.6855 26.0632 21.8708C26.0632 24.9952 26.0632 28.1196 26.0632 31.2316C26.0632 31.4292 26.088 31.3922 25.8892 31.3922C24.3107 31.3922 22.7323 31.3922 21.1538 31.3922C21.0295 31.3922 21.0171 31.3922 21.0171 31.2687C21.0171 28.1319 21.0171 24.9952 21.0171 21.8584C21.0171 21.7102 21.0171 21.7102 20.8679 21.6979C20.2341 21.6608 19.5878 21.6238 18.9539 21.5621C18.3946 21.5127 17.8477 21.4509 17.2885 21.3768C16.3812 21.2533 15.4614 21.1051 14.5665 20.9075C13.796 20.7346 13.0502 20.5247 12.3294 20.1913C12.0186 20.0554 11.7328 19.8949 11.4718 19.6726C11.3475 19.5738 11.2481 19.4503 11.1735 19.3145C11.0492 19.0675 11.0616 18.8328 11.2108 18.6105C11.3351 18.413 11.5091 18.2648 11.7079 18.1413C12.1678 17.8325 12.6649 17.6349 13.187 17.4621C14.1315 17.1533 15.0886 16.9557 16.0704 16.7828C16.8534 16.647 17.6365 16.5482 18.4195 16.4741C19.1652 16.4 19.8985 16.3383 20.6442 16.3012C20.7437 16.3012 20.8431 16.2889 20.9425 16.2889C20.9922 16.2889 21.0047 16.2642 21.0047 16.2271C21.0047 16.2024 21.0047 16.1901 21.0047 16.1654C21.0047 15.2392 21.0047 14.313 21.0047 13.3868C21.0047 13.288 20.9798 13.2633 20.8804 13.2633C18.6556 13.2633 16.4184 13.2633 14.1937 13.2633C14.0321 13.2633 14.0445 13.2756 14.0445 13.1274C14.0445 11.6825 14.0445 10.2253 14.0445 8.78042C14.0445 8.65693 14.0445 8.65693 14.1688 8.65693C17.3009 8.65693 20.4081 8.65693 23.5277 8.65693Z" fill="#FDFDFD"></path><path d="M22.9808 20.9322C21.8125 20.9199 20.6442 20.8828 19.4759 20.7964C18.3076 20.7099 17.1517 20.5864 15.9959 20.3889C15.0886 20.2283 14.1937 20.0431 13.3237 19.6973C13.0875 19.5985 12.8638 19.4997 12.6649 19.3515C12.5531 19.2774 12.4537 19.191 12.3791 19.0922C12.2175 18.8822 12.2175 18.6723 12.3791 18.4623C12.5282 18.2648 12.7395 18.1413 12.9508 18.0301C13.4852 17.7584 14.057 17.5855 14.6411 17.4373C15.6851 17.178 16.754 17.0175 17.8229 16.894C18.8421 16.7828 19.8612 16.6964 20.8804 16.6593C20.9798 16.6593 21.0047 16.684 21.0047 16.7828C21.0047 17.8325 21.0047 18.8699 21.0047 19.9196C21.0047 20.0184 21.0295 20.0431 21.129 20.0554C22.5707 20.1419 24.0249 20.1419 25.4666 20.0801C25.6282 20.0678 25.7898 20.0554 25.9389 20.0554C26.0135 20.0554 26.0259 20.0307 26.0259 19.9566C26.0259 19.7096 26.0259 19.4626 26.0259 19.228C26.0259 18.4129 26.0259 17.6102 26.0259 16.7952C26.0259 16.6964 26.0383 16.6593 26.1502 16.6717C27.0326 16.7211 27.9275 16.7828 28.8099 16.8693C29.8664 16.9804 30.9104 17.1286 31.942 17.3509C32.6007 17.4991 33.2595 17.6596 33.8685 17.9437C34.0922 18.0425 34.3035 18.1536 34.4899 18.3265C34.8379 18.6352 34.8379 18.944 34.4899 19.2527C34.204 19.512 33.8436 19.6602 33.4832 19.7961C32.7499 20.0678 32.0041 20.2283 31.2336 20.3765C29.8664 20.6235 28.4868 20.7593 27.1072 20.8581C25.74 20.9075 24.3604 20.9446 22.9808 20.9322Z" fill="#50AE94"></path></svg>