<svg width="21" height="20" viewBox="0 0 21 20" fill="none" xmlns="http://www.w3.org/2000/svg">
<path fill-rule="evenodd" clip-rule="evenodd" d="M3.73223 3.23223C4.20107 2.76339 4.83696 2.5 5.5 2.5H13.8333C14.2754 2.5 14.6993 2.67559 15.0118 2.98816C15.3244 3.30072 15.5 3.72464 15.5 4.16667V5.83333C15.942 5.83333 16.366 6.00893 16.6785 6.32149C16.9911 6.63405 17.1667 7.05797 17.1667 7.5V9.16667C17.6269 9.16667 18 9.53976 18 10V13.3333C18 13.7936 17.6269 14.1667 17.1667 14.1667V15.8333C17.1667 16.2754 16.9911 16.6993 16.6785 17.0118C16.366 17.3244 15.942 17.5 15.5 17.5H5.5C4.83696 17.5 4.20107 17.2366 3.73223 16.7678C3.26339 16.2989 3 15.663 3 15V5C3 4.33696 3.26339 3.70107 3.73223 3.23223ZM4.66667 7.35702V15C4.66667 15.221 4.75446 15.433 4.91074 15.5893C5.06702 15.7455 5.27899 15.8333 5.5 15.8333H15.5V14.1667H13.8333C13.1703 14.1667 12.5344 13.9033 12.0656 13.4344C11.5967 12.9656 11.3333 12.3297 11.3333 11.6667C11.3333 11.0036 11.5967 10.3677 12.0656 9.8989C12.5344 9.43006 13.1703 9.16667 13.8333 9.16667H15.5V7.5H5.5C5.21338 7.5 4.93184 7.45078 4.66667 7.35702ZM13.8333 5.83333H5.5C5.27899 5.83333 5.06702 5.74554 4.91074 5.58926C4.75446 5.43298 4.66667 5.22101 4.66667 5C4.66667 4.77899 4.75446 4.56702 4.91074 4.41074C5.06702 4.25446 5.27899 4.16667 5.5 4.16667L13.8333 4.16667L13.8333 5.83333ZM16.3333 10.8333H13.8333C13.6123 10.8333 13.4004 10.9211 13.2441 11.0774C13.0878 11.2337 13 11.4457 13 11.6667C13 11.8877 13.0878 12.0996 13.2441 12.2559C13.4004 12.4122 13.6123 12.5 13.8333 12.5H16.3333V10.8333Z" fill="white"/>
</svg>
