<svg width="48" height="30" viewBox="0 0 48 30" fill="none" xmlns="http://www.w3.org/2000/svg">
<g clip-path="url(#clip0_1231_55)">
<path fill-rule="evenodd" clip-rule="evenodd" d="M17.1213 29.1213C15.9497 30.2929 14.0503 30.2929 12.8787 29.1213L0.8787 17.1213C-0.2929 15.9497 -0.2929 14.0503 0.8787 12.8787L12.8787 0.8787C14.0503 -0.2929 15.9497 -0.2929 17.1213 0.8787C18.2929 2.0503 18.2929 3.9497 17.1213 5.1213L10.2426 12H45C46.6568 12 48 13.3431 48 15C48 16.6569 46.6568 18 45 18H10.2426L17.1213 24.8787C18.2929 26.0503 18.2929 27.9498 17.1213 29.1213Z" fill="white"/>
</g>
<defs>
<clipPath id="clip0_1231_55">
<rect width="48" height="30" fill="white" transform="matrix(-1 0 0 -1 48 30)"/>
</clipPath>
</defs>
</svg>
