<svg xmlns="http://www.w3.org/2000/svg" version="1.1" xmlns:xlink="http://www.w3.org/1999/xlink" width="512" height="512" x="0" y="0" viewBox="0 0 24 24" style="enable-background:new 0 0 512 512" xml:space="preserve" class=""><g><path d="M6 3h12c2.2 0 4 1.8 4 4 0 1.7-1 3.1-2.5 3.7V7c0-.4-.2-.8-.4-1.1s-.7-.4-1.1-.4H6c-.4 0-.8.2-1.1.4s-.4.7-.4 1.1v3.7C3 10.1 2 8.7 2 7c0-2.2 1.8-4 4-4z" fill="#ffffff" opacity="1" data-original="#000000" class=""></path><path fill-rule="evenodd" d="M18 7v12c0 1.1-.9 2-2 2H8c-1.1 0-2-.9-2-2V7zm-7.5 7.5.7.7V11c0-.4.3-.8.8-.8s.8.3.8.8v4.2l.7-.7c.3-.3.8-.3 1.1 0s.3.8 0 1.1l-1.3 1.3c-.7.7-1.8.7-2.5 0l-1.3-1.3c-.3-.3-.3-.8 0-1.1s.7-.3 1 0z" clip-rule="evenodd" fill="#ffffff" opacity="1" data-original="#000000" class=""></path></g></svg>