<svg width="18" height="19" viewBox="0 0 18 19" fill="none" xmlns="http://www.w3.org/2000/svg">
<g clip-path="url(#clip0_4_372)">
<path d="M17.6239 4.72069C17.417 3.9462 16.8071 3.33635 16.0326 3.12935C14.6287 2.75317 9 2.75317 9 2.75317C9 2.75317 3.37124 2.75317 1.96738 3.12935C1.19303 3.33635 0.583031 3.9462 0.376066 4.72069C0 6.12441 0 9.05328 0 9.05328C0 9.05328 0 11.9821 0.376066 13.3857C0.583031 14.1601 1.19303 14.7702 1.96738 14.9771C3.37124 15.3532 9 15.3532 9 15.3532C9 15.3532 14.6287 15.3532 16.0326 14.9771C16.8071 14.7702 17.417 14.1601 17.6239 13.3857C18 11.9821 18 9.05328 18 9.05328C18 9.05328 18 6.12441 17.6239 4.72069ZM7.19989 11.7533V6.35321L11.8763 9.05328L7.19989 11.7533Z" fill="white"/>
</g>
<defs>
<clipPath id="clip0_4_372">
<rect width="18" height="18" fill="white" transform="translate(0 0.0532227)"/>
</clipPath>
</defs>
</svg>
